<svg height="512" viewBox="0 0 512 512" width="512" xmlns="http://www.w3.org/2000/svg"><g fill="none" opacity=".6" stroke="#000" stroke-linecap="round" stroke-width="2.5"><path d="m89.932 138.733c-28.286 39.966 4.5 84.324 77.993 105.52"/><path d="m408.522 212.049c25.745-22.276 30.688-49.065 13.521-73.316"/><path d="m344.055 129.051c28.08-24.294 11.416-55.36-37.221-69.387-48.639-14.027-110.829-5.703-138.909 18.592-28.081 24.295-11.417 55.361 37.22 69.388"/><path d="m52.611 256.04c0 56.104 91.056 101.59 203.377 101.59 112.325 0 203.379-45.483 203.379-101.59"/><path d="m89.932 373.348c24.881 35.149 91.417 58.651 166.057 58.651 74.642 0 141.178-23.502 166.058-58.651"/><path d="m389.132 409.63c63.68-55.096 55.694-168.524-17.838-253.35-73.533-84.825-184.766-108.926-248.446-53.831"/><path d="m255.988 80.08c-20.075-17.37-39.701-24.067-56.406-19.25"/><path d="m312.396 451.249c28.287-8.158 45.279-48.396 45.279-107.229"/><path d="m312.396 60.83c-46.729-13.477-109.865 62.997-141.02 170.808-31.152 107.812-18.525 206.134 28.203 219.611"/><path d="m389.132 102.449c-63.682-55.095-174.915-30.994-248.446 53.831-73.533 84.826-81.519 198.254-17.838 253.35"/><path d="m459.367 256.04c0-97.181-91.055-175.96-203.379-175.96-112.321 0-203.377 78.779-203.377 175.96"/><path d="m255.988 256.04c0-45.823 0-175.96 0-175.96"/><path d="m255.988 256.04 176.131 50.795"/><path d="m255.988 256.04-101.687 87.98"/><circle cx="255.989" cy="256.039" r="203.378"/><path d="m255.988 52.859v27.221"/><path d="m255.988 459.22v-101.59"/></g><path d="m314.699 272.973c-23.098 17.772-57.014 20.115-84.781 14.327-2.633-.549-5.233-1.213-7.824-1.934" fill="none" stroke="#000" stroke-linecap="round" stroke-width="2.5"/><path d="m255.988 197.386c30.634 9.278 55.581 38.322 58.497 70.492.151 1.696.183 3.394.216 5.095" fill="none" stroke="#000" stroke-linecap="round" stroke-width="2.5"/><path d="m255.988 44.888-6.621 26.487h13.244z" fill="#0f0"/><path d="m255.988 256.04v-184.665" fill="none" stroke="#0f0" stroke-linecap="round" stroke-width="6.5"/><path d="m443.73 303.292-3.671 12.726 27.284.979z" fill="#f00"/><path d="m255.988 256.04 185.91 53.614" fill="none" stroke="#f00" stroke-linecap="round" stroke-width="6.5"/><path d="m149.662 339.275-15.699 22.341 24.363-12.322z" fill="#00f"/><path d="m255.988 256.04-101.994 88.244" fill="none" stroke="#00f" stroke-linecap="round" stroke-width="6.5"/><path d="m302.471 246.452 12.433 24.307.468-27.299z"/><path d="m291.466 291.729 21.441-16.902-26.872 4.82z"/><g font-size="32"><text font-family="'Helvetica'" transform="translate(246.8594 316.2568)">phi</text><text font-family="'Helvetica'" transform="translate(292.9004 215.9482)">theta</text><text font-family="'Helvetica'" transform="translate(116.3354 374.9453)">z</text><text font-family="'KozGoPr6N-Regular-83pv-RKSJ-H'" transform="translate(249.4355 37.4004)">y</text><text font-family="'Helvetica'" transform="translate(475.751 326)">x</text></g></svg>
